<svg xmlns="http://www.w3.org/2000/svg" viewBox="0 0 48 48" width="48" height="48">
  <defs>
    <linearGradient id="tealGrad" x1="0%" y1="0%" x2="100%" y2="100%">
      <stop offset="0%" stop-color="#2DD4BF"/>
      <stop offset="100%" stop-color="#0D9488"/>
    </linearGradient>
  </defs>
  <!-- Rounded Squircle Badge -->
  <rect x="0" y="0" width="48" height="48" rx="13" ry="13" fill="url(#tealGrad)"/>
  <!-- Modern Sun / EyeFocus Vector in Crisp Solid White -->
  <g transform="translate(8, 8) scale(0.6666667)">
    <path fill-rule="evenodd" clip-rule="evenodd" d="M24.0028 12.7505C17.7891 12.7505 12.7518 17.7887 12.7518 24.0018C12.7518 30.2149 17.7898 35.253 24.0028 35.253C30.2158 35.253 35.2539 30.2156 35.2539 24.0018C35.2539 17.788 30.2165 12.7505 24.0028 12.7505ZM24.0028 29.6284C20.8963 29.6284 18.3769 27.1062 18.3769 24.0025C18.3769 20.8931 20.8963 18.3765 24.0028 18.3765C27.1093 18.3765 29.6287 20.8931 29.6287 24.0025C29.6287 27.1062 27.1093 29.6284 24.0028 29.6284Z" fill="#FFFFFF"/>
    <path fill-rule="evenodd" clip-rule="evenodd" d="M9.93847 23.9968C9.93847 22.4421 8.68054 21.1842 7.12588 21.1842H4.31259C2.75793 21.1842 1.5 22.4421 1.5 23.9968C1.5 25.5514 2.75793 26.8094 4.31259 26.8094H7.12517C8.68054 26.8094 9.93847 25.5514 9.93847 23.9968Z" fill="#FFFFFF"/>
    <path fill-rule="evenodd" clip-rule="evenodd" d="M10.0812 33.9409L8.08989 35.9301C6.99087 37.0285 6.99087 38.8089 8.08989 39.9072C9.1882 41.0055 10.9686 41.0055 12.0676 39.9072L14.0596 37.9187C15.1579 36.8203 15.1579 35.0392 14.0596 33.9409C12.9599 32.8419 11.1802 32.8419 10.0812 33.9409Z" fill="#FFFFFF"/>
    <path fill-rule="evenodd" clip-rule="evenodd" d="M24.0028 38.0614C22.4481 38.0614 21.1902 39.3194 21.1902 40.874V43.6874C21.1902 45.242 22.4481 46.5 24.0028 46.5C25.5574 46.5 26.8154 45.242 26.8154 43.6874L26.8125 40.874C26.8154 39.3194 25.5546 38.0614 24.0028 38.0614Z" fill="#FFFFFF"/>
    <path fill-rule="evenodd" clip-rule="evenodd" d="M37.9216 33.9409C36.8254 32.8425 35.045 32.8425 33.9467 33.9409C32.8484 35.0392 32.8484 36.8203 33.9467 37.9186L35.9359 39.9072C37.0342 41.0111 38.8146 41.0055 39.9129 39.9072C41.0112 38.8088 41.0141 37.0284 39.9129 35.9301L37.9216 33.9409Z" fill="#FFFFFF"/>
    <path fill-rule="evenodd" clip-rule="evenodd" d="M43.693 21.1842L40.8741 21.1898C39.3251 21.1842 38.0672 22.4421 38.0672 23.9968C38.0615 25.5514 39.3251 26.8094 40.8741 26.8094H43.6874C45.2477 26.815 46.5 25.5514 46.5 23.9968C46.5028 22.4421 45.2477 21.1842 43.693 21.1842Z" fill="#FFFFFF"/>
    <path fill-rule="evenodd" clip-rule="evenodd" d="M37.9216 14.0528L39.9101 12.0636C41.0169 10.9652 41.0084 9.18485 39.9101 8.08581C38.8139 6.98678 37.0342 6.98678 35.9359 8.08581L33.9467 10.08C32.8484 11.1734 32.8484 12.9531 33.9467 14.0521C35.0394 15.1575 36.8254 15.1518 37.9216 14.0528Z" fill="#FFFFFF"/>
    <path fill-rule="evenodd" clip-rule="evenodd" d="M24.0028 9.93229C25.5546 9.94354 26.8154 8.67434 26.8154 7.12528V4.31265C26.8154 2.75234 25.5574 1.50002 24.0028 1.50002C22.4481 1.49439 21.1902 2.75234 21.1902 4.30773L21.1958 7.12598C21.1902 8.67434 22.4481 9.93229 24.0028 9.93229Z" fill="#FFFFFF"/>
    <path fill-rule="evenodd" clip-rule="evenodd" d="M10.0868 14.0528C11.1802 15.1511 12.955 15.1511 14.0568 14.0472C15.1635 12.9594 15.1579 11.1741 14.0624 10.075L12.0732 8.08649C10.9693 6.98183 9.19452 6.99308 8.0955 8.08649C6.98805 9.18482 6.98805 10.9652 8.08707 12.0643L10.0868 14.0528Z" fill="#FFFFFF"/>
  </g>
</svg>
